<svg width="25" height="24" viewBox="0 0 25 24" fill="none" xmlns="http://www.w3.org/2000/svg">
<path d="M23.824 16.4218L18.4594 14.2431C18.2303 14.1505 17.9756 14.131 17.7337 14.1875C17.4918 14.244 17.2758 14.3734 17.1183 14.5563L14.7425 17.3069C11.014 15.641 8.01344 12.7975 6.25549 9.26421L9.15811 7.01285C9.35146 6.86382 9.48832 6.65915 9.54795 6.42983C9.60758 6.20051 9.58675 5.95902 9.48861 5.74192L7.1895 0.658202C7.08178 0.424173 6.89127 0.233097 6.65081 0.11792C6.41036 0.00274391 6.13503 -0.0293133 5.8723 0.0272765L0.890904 1.11664C0.637604 1.17207 0.41161 1.30723 0.249805 1.50005C0.0880008 1.69287 -5.83499e-05 1.93197 2.90081e-08 2.17832C2.90081e-08 13.8209 9.95801 23.2394 22.2247 23.2394C22.4847 23.2396 22.7372 23.1562 22.9407 23.0028C23.1443 22.8495 23.287 22.6353 23.3455 22.3952L24.4951 17.6746C24.5544 17.4244 24.5199 17.1624 24.3974 16.9338C24.2749 16.7051 24.0721 16.5241 23.824 16.4218Z" fill="#193441"/>
</svg>
