<svg width="32" height="30" viewBox="0 0 32 30" fill="none" xmlns="http://www.w3.org/2000/svg">
<path d="M31.3183 25.9369L25.1353 20.0957C24.8562 19.832 24.4779 19.6856 24.081 19.6856H23.0701C24.7818 17.6174 25.7989 15.0161 25.7989 12.1863C25.7989 5.45455 20.0251 0 12.8994 0C5.77373 0 0 5.45455 0 12.1863C0 18.9181 5.77373 24.3726 12.8994 24.3726C15.8948 24.3726 18.6484 23.4118 20.8375 21.7947V22.7497C20.8375 23.1247 20.9926 23.4821 21.2717 23.7457L27.4547 29.587C28.0377 30.1377 28.9803 30.1377 29.5571 29.587L31.3121 27.9289C31.8951 27.3782 31.8951 26.4876 31.3183 25.9369ZM12.8994 19.6856C8.51486 19.6856 4.96132 16.3343 4.96132 12.1863C4.96132 8.04414 8.50866 4.68704 12.8994 4.68704C17.284 4.68704 20.8375 8.03828 20.8375 12.1863C20.8375 16.3285 17.2902 19.6856 12.8994 19.6856Z" fill="#193441"/>
</svg>
